<?xml version="1.0" encoding="iso-8859-1" standalone="no"?> 
<?xml-stylesheet href="latex-M2RngE.css" type="text/css"?> 
<svg xmlns="http://www.w3.org/2000/svg" xmlns:xlink="http://www.w3.org/1999/xlink" width="58.72285pt" height="85.75821pt" viewBox="-15.84375 -28.65274 58.72285 85.75821 "> 
<g transform="translate(0, 57.10547 ) scale(1,-1) translate(0,28.65274 )"> 
     <g>{?nl} <g stroke="rgb(0.0%,0.0%,0.0%)">{?nl} <g fill="rgb(0.0%,0.0%,0.0%)">{?nl} <g stroke-width="0.4pt">{?nl} <g>{?nl} <path d=" M  0.0 0.0 L  0.0 28.45274  " style="fill:none"/>{?nl} <g>{?nl} <g>{?nl} <g transform="matrix(1.0,0.0,0.0,1.0,0.0,14.22636)">{?nl} <g fill="rgb(0.0%,0.0%,0.0%)">{?nl} <text style="stroke:none" transform="scale(1,-1) translate(0.0,0)" text-anchor="middle"  font-size="10"> 
</text> 
</g>{?nl} </g>{?nl} </g>{?nl} </g>{?nl} <g>{?nl} <g>{?nl} <g transform="matrix(1.0,0.0,0.0,1.0,-10.67706,10.80971)">{?nl} <g fill="rgb(0.0%,0.0%,0.0%)">{?nl} <text style="stroke:none" transform="scale(1,-1) translate(1.80556,0)" text-anchor="middle"  font-size="10"> 
I</text> 
</g>{?nl} </g>{?nl} </g>{?nl} </g>{?nl} <g>{?nl} <g fill="rgb(0.0%,0.0%,0.0%)">{?nl} <g>{?nl} <g fill="rgb(0.0%,0.0%,0.0%)">{?nl} <path d=" M  1.0 0.0 C  1.0 0.55229 0.55229 1.0 0.0 1.0 C  -0.55229 1.0 -1.0 0.55229 -1.0 0.0 C  -1.0 -0.55229 -0.55229 -1.0 0.0 -1.0 C  0.55229 -1.0 1.0 -0.55229 1.0 0.0 Z M  0.0 0.0  " style="stroke:none"/>{?nl} </g>{?nl} </g>{?nl} <g>{?nl} <g transform="matrix(1.0,0.0,0.0,1.0,0.0,0.0)">{?nl} <g fill="rgb(0.0%,0.0%,0.0%)">{?nl} <text style="stroke:none" transform="scale(1,-1) translate(0.0,0)" text-anchor="middle"  font-size="10"> 
</text> 
</g>{?nl} </g>{?nl} </g>{?nl} </g>{?nl} </g>{?nl} <g>{?nl} <g>{?nl} <g transform="matrix(1.0,0.0,0.0,1.0,-12.51077,-3.3393)">{?nl} <g fill="rgb(0.0%,0.0%,0.0%)">{?nl} <text style="stroke:none" transform="scale(1,-1) translate(3.8889,0)" text-anchor="middle"  font-size="10"> 
i0</text> 
</g>{?nl} </g>{?nl} </g>{?nl} </g>{?nl} <g>{?nl} <g fill="rgb(0.0%,0.0%,0.0%)">{?nl} <g>{?nl} <g fill="rgb(0.0%,0.0%,0.0%)">{?nl} <path d=" M  1.0 28.45274 C  1.0 29.00504 0.55229 29.45274 0.0 29.45274 C  -0.55229 29.45274 -1.0 29.00504 -1.0 28.45274 C  -1.0 27.90045 -0.55229 27.45274 0.0 27.45274 C  0.55229 27.45274 1.0 27.90045 1.0 28.45274 Z M  0.0 28.45274  " style="stroke:none"/>{?nl} </g>{?nl} </g>{?nl} <g>{?nl} <g transform="matrix(1.0,0.0,0.0,1.0,0.0,28.45274)">{?nl} <g fill="rgb(0.0%,0.0%,0.0%)">{?nl} <text style="stroke:none" transform="scale(1,-1) translate(0.0,0)" text-anchor="middle"  font-size="10"> 
</text> 
</g>{?nl} </g>{?nl} </g>{?nl} </g>{?nl} </g>{?nl} <g>{?nl} <g>{?nl} <g transform="matrix(1.0,0.0,0.0,1.0,-12.51077,25.11345)">{?nl} <g fill="rgb(0.0%,0.0%,0.0%)">{?nl} <text style="stroke:none" transform="scale(1,-1) translate(3.8889,0)" text-anchor="middle"  font-size="10"> 
i1</text> 
</g>{?nl} </g>{?nl} </g>{?nl} </g>{?nl} <path d=" M  28.45274 14.22636 M  42.67911 14.22636 C  42.67911 37.79768 36.30984 56.90547 28.45274 56.90547 C  20.59564 56.90547 14.22638 37.79768 14.22638 14.22636 C  14.22638 -9.34496 20.59564 -28.45274 28.45274 -28.45274 C  36.30984 -28.45274 42.67911 -9.34496 42.67911 14.22636 Z M  28.45274 14.22636  " style="fill:none"/>{?nl} <g>{?nl} <g>{?nl} <g transform="matrix(1.0,0.0,0.0,1.0,31.98572,10.80971)">{?nl} <g fill="rgb(0.0%,0.0%,0.0%)">{?nl} <text style="stroke:none" transform="scale(1,-1) translate(3.75,0)" text-anchor="middle"  font-size="10"> 
A</text> 
</g>{?nl} </g>{?nl} </g>{?nl} </g>{?nl} <g>{?nl} <g fill="rgb(0.0%,0.0%,0.0%)">{?nl} <g>{?nl} <g fill="rgb(0.0%,0.0%,0.0%)">{?nl} <path d=" M  25.89615 35.56592 C  25.89615 36.11821 25.44844 36.56592 24.89615 36.56592 C  24.34386 36.56592 23.89615 36.11821 23.89615 35.56592 C  23.89615 35.01363 24.34386 34.56592 24.89615 34.56592 C  25.44844 34.56592 25.89615 35.01363 25.89615 35.56592 Z M  24.89615 35.56592  " style="stroke:none"/>{?nl} </g>{?nl} </g>{?nl} <g>{?nl} <g transform="matrix(1.0,0.0,0.0,1.0,24.89615,35.56592)">{?nl} <g fill="rgb(0.0%,0.0%,0.0%)">{?nl} <text style="stroke:none" transform="scale(1,-1) translate(0.0,0)" text-anchor="middle"  font-size="10"> 
</text> 
</g>{?nl} </g>{?nl} </g>{?nl} </g>{?nl} </g>{?nl} <g>{?nl} <g>{?nl} <g transform="matrix(1.0,0.0,0.0,1.0,29.62912,33.41315)">{?nl} <g fill="rgb(0.0%,0.0%,0.0%)">{?nl} <text style="stroke:none" transform="scale(1,-1) translate(2.6389,0)" text-anchor="middle"  font-size="10"> 
x</text> 
</g>{?nl} </g>{?nl} </g>{?nl} </g>{?nl} <g>{?nl} <g fill="rgb(0.0%,0.0%,0.0%)">{?nl} <g>{?nl} <g fill="rgb(0.0%,0.0%,0.0%)">{?nl} <path d=" M  25.89615 -7.11317 C  25.89615 -6.56088 25.44844 -6.11317 24.89615 -6.11317 C  24.34386 -6.11317 23.89615 -6.56088 23.89615 -7.11317 C  23.89615 -7.66547 24.34386 -8.11317 24.89615 -8.11317 C  25.44844 -8.11317 25.89615 -7.66547 25.89615 -7.11317 Z M  24.89615 -7.11317  " style="stroke:none"/>{?nl} </g>{?nl} </g>{?nl} <g>{?nl} <g transform="matrix(1.0,0.0,0.0,1.0,24.89615,-7.11317)">{?nl} <g fill="rgb(0.0%,0.0%,0.0%)">{?nl} <text style="stroke:none" transform="scale(1,-1) translate(0.0,0)" text-anchor="middle"  font-size="10"> 
</text> 
</g>{?nl} </g>{?nl} </g>{?nl} </g>{?nl} </g>{?nl} <g>{?nl} <g>{?nl} <g transform="matrix(1.0,0.0,0.0,1.0,29.62912,-8.29373)">{?nl} <g fill="rgb(0.0%,0.0%,0.0%)">{?nl} <text style="stroke:none" transform="scale(1,-1) translate(2.6389,0)" text-anchor="middle"  font-size="10"> 
y</text> 
</g>{?nl} </g>{?nl} </g>{?nl} </g>{?nl} <g>{?nl} <g stroke-dasharray="0.4pt,2.0pt" stroke-dashoffset="0.0pt">{?nl} <path d=" M  24.89615 34.36592 L  24.89615 -5.91318  " style="fill:none"/>{?nl} </g>{?nl} </g>{?nl} <path d=" M  7.11317 0.0 L  20.92813 -6.90747  " style="fill:none"/>{?nl} <g>{?nl} <g transform="matrix(0.89442,-0.4472,0.4472,0.89442,20.92813,-6.90747)">{?nl} <g>{?nl} <g stroke-width="0.31999pt">{?nl} <g stroke-dasharray="none" stroke-dashoffset="0.0pt">{?nl} <g stroke-linecap="round">{?nl} <g stroke-linejoin="round">{?nl} <path d=" M  -1.19998 1.59998 C  -1.09998 0.99998 0.0 0.09999 0.29999 0.0 C  0.0 -0.09999 -1.09998 -0.99998 -1.19998 -1.59998  " style="fill:none"/>{?nl} </g>{?nl} </g>{?nl} </g>{?nl} </g>{?nl} </g>{?nl}  </g>{?nl} </g>{?nl} <path d=" M  7.11317 7.11317 L  20.89331 3.66812  " style="fill:none"/>{?nl} <g>{?nl} <g transform="matrix(0.97014,-0.24251,0.24251,0.97014,20.8933,3.66812)">{?nl} <g>{?nl} <g stroke-width="0.31999pt">{?nl} <g stroke-dasharray="none" stroke-dashoffset="0.0pt">{?nl} <g stroke-linecap="round">{?nl} <g stroke-linejoin="round">{?nl} <path d=" M  -1.19998 1.59998 C  -1.09998 0.99998 0.0 0.09999 0.29999 0.0 C  0.0 -0.09999 -1.09998 -0.99998 -1.19998 -1.59998  " style="fill:none"/>{?nl} </g>{?nl} </g>{?nl} </g>{?nl} </g>{?nl} </g>{?nl}  </g>{?nl} </g>{?nl} <path d=" M  7.11317 14.22636 L  20.87956 14.22636  " style="fill:none"/>{?nl} <g>{?nl} <g transform="matrix(1.0,0.0,0.0,1.0,20.87956,14.22636)">{?nl} <g>{?nl} <g stroke-width="0.31999pt">{?nl} <g stroke-dasharray="none" stroke-dashoffset="0.0pt">{?nl} <g stroke-linecap="round">{?nl} <g stroke-linejoin="round">{?nl} <path d=" M  -1.19998 1.59998 C  -1.09998 0.99998 0.0 0.09999 0.29999 0.0 C  0.0 -0.09999 -1.09998 -0.99998 -1.19998 -1.59998  " style="fill:none"/>{?nl} </g>{?nl} </g>{?nl} </g>{?nl} </g>{?nl} </g>{?nl}  </g>{?nl} </g>{?nl} <path d=" M  7.11317 21.33955 L  20.89331 24.7846  " style="fill:none"/>{?nl} <g>{?nl} <g transform="matrix(0.97014,0.24251,-0.24251,0.97014,20.8933,24.7846)">{?nl} <g>{?nl} <g stroke-width="0.31999pt">{?nl} <g stroke-dasharray="none" stroke-dashoffset="0.0pt">{?nl} <g stroke-linecap="round">{?nl} <g stroke-linejoin="round">{?nl} <path d=" M  -1.19998 1.59998 C  -1.09998 0.99998 0.0 0.09999 0.29999 0.0 C  0.0 -0.09999 -1.09998 -0.99998 -1.19998 -1.59998  " style="fill:none"/>{?nl} </g>{?nl} </g>{?nl} </g>{?nl} </g>{?nl} </g>{?nl}  </g>{?nl} </g>{?nl} <path d=" M  7.11317 28.45274 L  20.92813 35.36021  " style="fill:none"/>{?nl} <g>{?nl} <g transform="matrix(0.89442,0.4472,-0.4472,0.89442,20.92813,35.36021)">{?nl} <g>{?nl} <g stroke-width="0.31999pt">{?nl} <g stroke-dasharray="none" stroke-dashoffset="0.0pt">{?nl} <g stroke-linecap="round">{?nl} <g stroke-linejoin="round">{?nl} <path d=" M  -1.19998 1.59998 C  -1.09998 0.99998 0.0 0.09999 0.29999 0.0 C  0.0 -0.09999 -1.09998 -0.99998 -1.19998 -1.59998  " style="fill:none"/>{?nl} </g>{?nl} </g>{?nl} </g>{?nl} </g>{?nl} </g>{?nl}  </g>{?nl} </g>{?nl} </g>{?nl} </g>{?nl} </g>{?nl} </g>{?nl} </g>{?nl} 
                  </g> 
</svg> 
